# xmcd
#
# Track frame offsets:
#	150
#	21887
#	37957
#	64602
#	93397
#	116342
#	134950
#	161395
#
# Disc length: 2480 seconds
#
# Revision: 3735635
# Processed by: cddbd v1.5.2PL0 Copyright (c) Steve Scherf et al.
# Submitted via: EZCDAudioConverter 8.0.2.1
#
DISCID=6309ae08
DTITLE=Chế Linh, Thanh Tuyền - The Best Of. Mai Lỡ hai Mình Xa Nhau [CD2)
DYEAR=2002
DGENRE=
TTITLE0=Chế Linh, Thanh Tuyền - Bài hương ca vô tận
TTITLE1=Thanh Tuyền - Kiếp nghèo
TTITLE2=Thanh Tuyền - Mấy nhịp cầu tre
TTITLE3=Thanh Tuyền - Hàn Mạc Tử
TTITLE4=Chế Linh - Nó
TTITLE5=Thanh Tuyền - Biển tình
TTITLE6=Thanh Tuyền - Người ở lại đưa đò
TTITLE7=Chế Linh, Thanh Tuyền - Phút cuối
EXTD=
EXTT0=
EXTT1=
EXTT2=
EXTT3=
EXTT4=
EXTT5=
EXTT6=
EXTT7=
PLAYORDER=
